<svg xmlns="http://www.w3.org/2000/svg" viewBox="0 0 24 24" id="github"><g fill="#303c42" data-name="Github 2"><path d="M8 12c-1.14 0-2 1.5-2 3.5S6.86 19 8 19s2-1.5 2-3.5S9.14 12 8 12zm8 0c-1.14 0-2 1.5-2 3.5s.86 3.5 2 3.5 2-1.5 2-3.5-.86-3.5-2-3.5z"></path><path d="M22.17 7.33a14.19 14.19 0 0 0-.86-6 .5.5 0 0 0-.53-.33c-.1 0-2.35.3-5.73 2.75a14.08 14.08 0 0 0-3-.28 14.09 14.09 0 0 0-3 .28C5.57 1.3 3.32 1 3.22 1a.51.51 0 0 0-.53.32 14.19 14.19 0 0 0-.86 6A8.17 8.17 0 0 0 0 12.67C0 19.33 3.49 23 9.83 23h4.33C20.51 23 24 19.33 24 12.67a8.17 8.17 0 0 0-1.83-5.34ZM20 14.76c0 4.4-2.8 5.24-8 5.24s-8-.83-8-5.24a4.06 4.06 0 0 1 1.18-3A3.34 3.34 0 0 1 7.75 11c.57 0 1.19 0 1.85.1s1.54.12 2.43.12 1.6-.06 2.36-.12 1.28-.1 1.85-.1a3.34 3.34 0 0 1 2.58.81A4.06 4.06 0 0 1 20 14.76Z"></path></g></svg>