<svg xmlns="http://www.w3.org/2000/svg" xmlns:xlink="http://www.w3.org/1999/xlink" width="500" zoomAndPan="magnify" viewBox="0 0 375 374.999991" height="500" preserveAspectRatio="xMidYMid meet" version="1.0"><defs><g/><clipPath id="8922c6eda8"><path d="M 187.5 0 C 83.945312 0 0 83.945312 0 187.5 C 0 291.054688 83.945312 375 187.5 375 C 291.054688 375 375 291.054688 375 187.5 C 375 83.945312 291.054688 0 187.5 0 Z M 187.5 0 " clip-rule="nonzero"/></clipPath></defs><g clip-path="url(#8922c6eda8)"><rect x="-37.5" width="450" fill="#8c52ff" y="-37.499999" height="449.999989" fill-opacity="1"/></g><g fill="#ffffff" fill-opacity="1"><g transform="translate(13.773772, 244.499984)"><g><path d="M 81.59375 0 L 81.59375 -103.273438 L 55.738281 -103.273438 L 55.738281 -23.535156 L 29.882812 -23.535156 L 29.882812 -103.273438 L 4.027344 -103.273438 L 4.027344 0 Z M 81.59375 0 "/></g></g></g><g fill="#ffffff" fill-opacity="1"><g transform="translate(144.758946, 244.499984)"><g><path d="M 81.59375 0 L 81.59375 -103.273438 L 55.738281 -103.273438 L 55.738281 -23.535156 L 29.882812 -23.535156 L 29.882812 -103.273438 L 4.027344 -103.273438 L 4.027344 0 Z M 81.59375 0 "/></g></g></g><g fill="#ffffff" fill-opacity="1"><g transform="translate(275.74412, 244.499984)"><g><path d="M 81.59375 0 L 81.59375 -23.535156 L 29.882812 -23.535156 L 29.882812 -40.566406 L 81.59375 -40.566406 L 81.59375 -103.273438 L 4.027344 -103.273438 L 4.027344 -79.582031 L 55.738281 -79.582031 L 55.738281 -63.324219 L 4.027344 -63.324219 L 4.027344 0 Z M 81.59375 0 "/></g></g></g></svg>